<svg width="65" height="40" viewBox="0 0 65 40" fill="none" xmlns="http://www.w3.org/2000/svg">
<path d="M0.5 2C0.5 1.17157 1.17157 0.5 2 0.5H63C63.8284 0.5 64.5 1.17157 64.5 2V38C64.5 38.8284 63.8284 39.5 63 39.5H2C1.17157 39.5 0.5 38.8284 0.5 38V2Z" stroke="#E0E0E0"/>
<path d="M19.6016 22.0312H14.8359L13.7656 25H12.2188L16.5625 13.625H17.875L22.2266 25H20.6875L19.6016 22.0312ZM15.2891 20.7969H19.1562L17.2188 15.4766L15.2891 20.7969ZM27.1094 19.9297C25.8229 19.5599 24.8854 19.1068 24.2969 18.5703C23.7135 18.0286 23.4219 17.362 23.4219 16.5703C23.4219 15.6745 23.7786 14.9349 24.4922 14.3516C25.2109 13.763 26.1432 13.4688 27.2891 13.4688C28.0703 13.4688 28.7656 13.6198 29.375 13.9219C29.9896 14.224 30.4635 14.6406 30.7969 15.1719C31.1354 15.7031 31.3047 16.2839 31.3047 16.9141H29.7969C29.7969 16.2266 29.5781 15.6875 29.1406 15.2969C28.7031 14.901 28.0859 14.7031 27.2891 14.7031C26.5495 14.7031 25.9714 14.8672 25.5547 15.1953C25.1432 15.5182 24.9375 15.9688 24.9375 16.5469C24.9375 17.0104 25.1328 17.4036 25.5234 17.7266C25.9193 18.0443 26.5885 18.3359 27.5312 18.6016C28.4792 18.8672 29.2188 19.1615 29.75 19.4844C30.2865 19.8021 30.6823 20.1745 30.9375 20.6016C31.1979 21.0286 31.3281 21.5312 31.3281 22.1094C31.3281 23.0312 30.9688 23.7708 30.25 24.3281C29.5312 24.8802 28.5703 25.1562 27.3672 25.1562C26.5859 25.1562 25.8568 25.0078 25.1797 24.7109C24.5026 24.4089 23.9792 23.9974 23.6094 23.4766C23.2448 22.9557 23.0625 22.3646 23.0625 21.7031H24.5703C24.5703 22.3906 24.8229 22.9349 25.3281 23.3359C25.8385 23.7318 26.5182 23.9297 27.3672 23.9297C28.1589 23.9297 28.7656 23.7682 29.1875 23.4453C29.6094 23.1224 29.8203 22.6823 29.8203 22.125C29.8203 21.5677 29.625 21.138 29.2344 20.8359C28.8438 20.5286 28.1354 20.2266 27.1094 19.9297ZM39.5391 22.0312H34.7734L33.7031 25H32.1562L36.5 13.625H37.8125L42.1641 25H40.625L39.5391 22.0312ZM35.2266 20.7969H39.0938L37.1562 15.4766L35.2266 20.7969ZM45.1953 20.5469V25H43.6953V13.625H47.8906C49.1354 13.625 50.1094 13.9427 50.8125 14.5781C51.5208 15.2135 51.875 16.0547 51.875 17.1016C51.875 18.2057 51.5286 19.0573 50.8359 19.6562C50.1484 20.25 49.1615 20.5469 47.875 20.5469H45.1953ZM45.1953 19.3203H47.8906C48.6927 19.3203 49.3073 19.1328 49.7344 18.7578C50.1615 18.3776 50.375 17.8307 50.375 17.1172C50.375 16.4401 50.1615 15.8984 49.7344 15.4922C49.3073 15.0859 48.7214 14.875 47.9766 14.8594H45.1953V19.3203Z" fill="#1D1D1D"/>
</svg>
